<mxfile host="app.diagrams.net" agent="Mozilla/5.0 (Macintosh; Intel Mac OS X 10_15_7) AppleWebKit/537.36 (KHTML, like Gecko) Chrome/120.0.0.0 Whale/3.24.223.18 Safari/537.36" version="24.7.6">
  <diagram name="페이지-1" id="OJn4qWadmgmPl1W8cVxA">
    <mxGraphModel dx="256" dy="486" grid="1" gridSize="10" guides="1" tooltips="1" connect="1" arrows="1" fold="1" page="1" pageScale="1" pageWidth="1169" pageHeight="827" math="0" shadow="0">
      <root>
        <mxCell id="0" />
        <mxCell id="1" parent="0" />
        <mxCell id="_ZfUV2Xm4BZs3Ikk3f9N-5" style="edgeStyle=orthogonalEdgeStyle;rounded=0;orthogonalLoop=1;jettySize=auto;html=1;entryX=0;entryY=0.5;entryDx=0;entryDy=0;" edge="1" parent="1" source="_ZfUV2Xm4BZs3Ikk3f9N-2">
          <mxGeometry relative="1" as="geometry">
            <mxPoint x="160" y="300" as="targetPoint" />
          </mxGeometry>
        </mxCell>
        <mxCell id="_ZfUV2Xm4BZs3Ikk3f9N-2" value="" style="ellipse;whiteSpace=wrap;html=1;aspect=fixed;" vertex="1" parent="1">
          <mxGeometry x="40" y="293" width="14" height="14" as="geometry" />
        </mxCell>
        <mxCell id="_ZfUV2Xm4BZs3Ikk3f9N-7" style="edgeStyle=orthogonalEdgeStyle;rounded=0;orthogonalLoop=1;jettySize=auto;html=1;exitX=1;exitY=0.25;exitDx=0;exitDy=0;" edge="1" parent="1">
          <mxGeometry relative="1" as="geometry">
            <mxPoint x="280" y="290" as="sourcePoint" />
            <mxPoint x="360" y="290" as="targetPoint" />
          </mxGeometry>
        </mxCell>
        <mxCell id="_ZfUV2Xm4BZs3Ikk3f9N-8" style="edgeStyle=orthogonalEdgeStyle;rounded=0;orthogonalLoop=1;jettySize=auto;html=1;entryX=0;entryY=0.625;entryDx=0;entryDy=0;entryPerimeter=0;exitX=1;exitY=0.75;exitDx=0;exitDy=0;" edge="1" parent="1">
          <mxGeometry relative="1" as="geometry">
            <mxPoint x="280" y="310" as="sourcePoint" />
            <mxPoint x="360" y="310" as="targetPoint" />
          </mxGeometry>
        </mxCell>
        <mxCell id="_ZfUV2Xm4BZs3Ikk3f9N-9" value="Order&amp;nbsp;&lt;div&gt;Service&lt;/div&gt;" style="rounded=0;whiteSpace=wrap;html=1;fillColor=#f5f5f5;fontColor=#333333;strokeColor=#666666;" vertex="1" parent="1">
          <mxGeometry x="160" y="280" width="120" height="40" as="geometry" />
        </mxCell>
        <mxCell id="_ZfUV2Xm4BZs3Ikk3f9N-10" value="MySQL" style="shape=cylinder3;whiteSpace=wrap;html=1;boundedLbl=1;backgroundOutline=1;size=15;fillColor=#dae8fc;strokeColor=#6c8ebf;" vertex="1" parent="1">
          <mxGeometry x="360" y="260" width="60" height="80" as="geometry" />
        </mxCell>
        <mxCell id="_ZfUV2Xm4BZs3Ikk3f9N-11" value="Kafka Connect&lt;div&gt;Debezium CDC&lt;/div&gt;" style="rounded=0;whiteSpace=wrap;html=1;fillColor=#d5e8d4;strokeColor=#82b366;" vertex="1" parent="1">
          <mxGeometry x="330" y="400" width="120" height="60" as="geometry" />
        </mxCell>
        <mxCell id="_ZfUV2Xm4BZs3Ikk3f9N-12" value="" style="group;fillColor=#fff2cc;strokeColor=#d6b656;container=0;" vertex="1" connectable="0" parent="1">
          <mxGeometry x="510" y="340" width="180" height="100" as="geometry" />
        </mxCell>
        <mxCell id="_ZfUV2Xm4BZs3Ikk3f9N-33" value="" style="group;fillColor=#fff2cc;strokeColor=#d6b656;" vertex="1" connectable="0" parent="1">
          <mxGeometry x="320" y="20" width="240" height="170" as="geometry" />
        </mxCell>
        <mxCell id="_ZfUV2Xm4BZs3Ikk3f9N-34" value="" style="rounded=0;whiteSpace=wrap;html=1;fillColor=#fff2cc;strokeColor=#d6b656;" vertex="1" parent="_ZfUV2Xm4BZs3Ikk3f9N-33">
          <mxGeometry width="240" height="170" as="geometry" />
        </mxCell>
        <mxCell id="_ZfUV2Xm4BZs3Ikk3f9N-35" value="Apache Kafka" style="text;html=1;align=center;verticalAlign=middle;whiteSpace=wrap;rounded=0;" vertex="1" parent="_ZfUV2Xm4BZs3Ikk3f9N-33">
          <mxGeometry x="75" width="90" height="30" as="geometry" />
        </mxCell>
        <mxCell id="_ZfUV2Xm4BZs3Ikk3f9N-36" value="" style="group" vertex="1" connectable="0" parent="_ZfUV2Xm4BZs3Ikk3f9N-33">
          <mxGeometry x="15" y="50" width="210" height="30" as="geometry" />
        </mxCell>
        <mxCell id="_ZfUV2Xm4BZs3Ikk3f9N-37" value="" style="rounded=0;whiteSpace=wrap;html=1;" vertex="1" parent="_ZfUV2Xm4BZs3Ikk3f9N-36">
          <mxGeometry width="30" height="30" as="geometry" />
        </mxCell>
        <mxCell id="_ZfUV2Xm4BZs3Ikk3f9N-38" value="" style="rounded=0;whiteSpace=wrap;html=1;" vertex="1" parent="_ZfUV2Xm4BZs3Ikk3f9N-36">
          <mxGeometry x="30" width="30" height="30" as="geometry" />
        </mxCell>
        <mxCell id="_ZfUV2Xm4BZs3Ikk3f9N-39" value="" style="rounded=0;whiteSpace=wrap;html=1;" vertex="1" parent="_ZfUV2Xm4BZs3Ikk3f9N-36">
          <mxGeometry x="60" width="30" height="30" as="geometry" />
        </mxCell>
        <mxCell id="_ZfUV2Xm4BZs3Ikk3f9N-40" value="" style="rounded=0;whiteSpace=wrap;html=1;" vertex="1" parent="_ZfUV2Xm4BZs3Ikk3f9N-36">
          <mxGeometry x="90" width="30" height="30" as="geometry" />
        </mxCell>
        <mxCell id="_ZfUV2Xm4BZs3Ikk3f9N-41" value="" style="rounded=0;whiteSpace=wrap;html=1;" vertex="1" parent="_ZfUV2Xm4BZs3Ikk3f9N-36">
          <mxGeometry x="120" width="30" height="30" as="geometry" />
        </mxCell>
        <mxCell id="_ZfUV2Xm4BZs3Ikk3f9N-42" value="" style="rounded=0;whiteSpace=wrap;html=1;" vertex="1" parent="_ZfUV2Xm4BZs3Ikk3f9N-36">
          <mxGeometry x="150" width="30" height="30" as="geometry" />
        </mxCell>
        <mxCell id="_ZfUV2Xm4BZs3Ikk3f9N-43" value="" style="rounded=0;whiteSpace=wrap;html=1;" vertex="1" parent="_ZfUV2Xm4BZs3Ikk3f9N-36">
          <mxGeometry x="180" width="30" height="30" as="geometry" />
        </mxCell>
        <mxCell id="_ZfUV2Xm4BZs3Ikk3f9N-44" value="Order Events" style="text;html=1;align=center;verticalAlign=middle;whiteSpace=wrap;rounded=0;" vertex="1" parent="_ZfUV2Xm4BZs3Ikk3f9N-33">
          <mxGeometry x="15" y="20" width="80" height="30" as="geometry" />
        </mxCell>
        <mxCell id="_ZfUV2Xm4BZs3Ikk3f9N-45" value="" style="group" vertex="1" connectable="0" parent="_ZfUV2Xm4BZs3Ikk3f9N-33">
          <mxGeometry x="15" y="120" width="210" height="30" as="geometry" />
        </mxCell>
        <mxCell id="_ZfUV2Xm4BZs3Ikk3f9N-46" value="" style="rounded=0;whiteSpace=wrap;html=1;" vertex="1" parent="_ZfUV2Xm4BZs3Ikk3f9N-45">
          <mxGeometry width="30" height="30" as="geometry" />
        </mxCell>
        <mxCell id="_ZfUV2Xm4BZs3Ikk3f9N-47" value="" style="rounded=0;whiteSpace=wrap;html=1;" vertex="1" parent="_ZfUV2Xm4BZs3Ikk3f9N-45">
          <mxGeometry x="30" width="30" height="30" as="geometry" />
        </mxCell>
        <mxCell id="_ZfUV2Xm4BZs3Ikk3f9N-48" value="" style="rounded=0;whiteSpace=wrap;html=1;" vertex="1" parent="_ZfUV2Xm4BZs3Ikk3f9N-45">
          <mxGeometry x="60" width="30" height="30" as="geometry" />
        </mxCell>
        <mxCell id="_ZfUV2Xm4BZs3Ikk3f9N-49" value="" style="rounded=0;whiteSpace=wrap;html=1;" vertex="1" parent="_ZfUV2Xm4BZs3Ikk3f9N-45">
          <mxGeometry x="90" width="30" height="30" as="geometry" />
        </mxCell>
        <mxCell id="_ZfUV2Xm4BZs3Ikk3f9N-50" value="" style="rounded=0;whiteSpace=wrap;html=1;" vertex="1" parent="_ZfUV2Xm4BZs3Ikk3f9N-45">
          <mxGeometry x="120" width="30" height="30" as="geometry" />
        </mxCell>
        <mxCell id="_ZfUV2Xm4BZs3Ikk3f9N-51" value="" style="rounded=0;whiteSpace=wrap;html=1;" vertex="1" parent="_ZfUV2Xm4BZs3Ikk3f9N-45">
          <mxGeometry x="150" width="30" height="30" as="geometry" />
        </mxCell>
        <mxCell id="_ZfUV2Xm4BZs3Ikk3f9N-52" value="" style="rounded=0;whiteSpace=wrap;html=1;" vertex="1" parent="_ZfUV2Xm4BZs3Ikk3f9N-45">
          <mxGeometry x="180" width="30" height="30" as="geometry" />
        </mxCell>
        <mxCell id="_ZfUV2Xm4BZs3Ikk3f9N-53" value="Shipment Events" style="text;html=1;align=center;verticalAlign=middle;whiteSpace=wrap;rounded=0;" vertex="1" parent="_ZfUV2Xm4BZs3Ikk3f9N-33">
          <mxGeometry x="15" y="90" width="95" height="30" as="geometry" />
        </mxCell>
        <mxCell id="_ZfUV2Xm4BZs3Ikk3f9N-13" value="" style="rounded=0;whiteSpace=wrap;html=1;fillColor=#fff2cc;strokeColor=#d6b656;container=0;" vertex="1" parent="1">
          <mxGeometry x="510" y="340" width="180" height="100" as="geometry" />
        </mxCell>
        <mxCell id="_ZfUV2Xm4BZs3Ikk3f9N-14" value="Apache Kafka" style="text;html=1;align=center;verticalAlign=middle;whiteSpace=wrap;rounded=0;container=0;" vertex="1" parent="1">
          <mxGeometry x="555" y="340" width="90" height="30" as="geometry" />
        </mxCell>
        <mxCell id="_ZfUV2Xm4BZs3Ikk3f9N-23" value="Order Events" style="text;html=1;align=center;verticalAlign=middle;whiteSpace=wrap;rounded=0;container=0;" vertex="1" parent="1">
          <mxGeometry x="525" y="360" width="80" height="30" as="geometry" />
        </mxCell>
        <mxCell id="_ZfUV2Xm4BZs3Ikk3f9N-16" value="" style="rounded=0;whiteSpace=wrap;html=1;container=0;" vertex="1" parent="1">
          <mxGeometry x="525" y="390" width="30" height="30" as="geometry" />
        </mxCell>
        <mxCell id="_ZfUV2Xm4BZs3Ikk3f9N-17" value="" style="rounded=0;whiteSpace=wrap;html=1;container=0;" vertex="1" parent="1">
          <mxGeometry x="555" y="390" width="30" height="30" as="geometry" />
        </mxCell>
        <mxCell id="_ZfUV2Xm4BZs3Ikk3f9N-18" value="" style="rounded=0;whiteSpace=wrap;html=1;container=0;" vertex="1" parent="1">
          <mxGeometry x="585" y="390" width="30" height="30" as="geometry" />
        </mxCell>
        <mxCell id="_ZfUV2Xm4BZs3Ikk3f9N-19" value="" style="rounded=0;whiteSpace=wrap;html=1;container=0;" vertex="1" parent="1">
          <mxGeometry x="615" y="390" width="30" height="30" as="geometry" />
        </mxCell>
        <mxCell id="_ZfUV2Xm4BZs3Ikk3f9N-20" value="" style="rounded=0;whiteSpace=wrap;html=1;container=0;" vertex="1" parent="1">
          <mxGeometry x="645" y="390" width="30" height="30" as="geometry" />
        </mxCell>
      </root>
    </mxGraphModel>
  </diagram>
</mxfile>
